<?xml version="1.0" encoding="UTF-8"?>
<svg aria-hidden="true" focusable="false" role="img" version="1.1" viewBox="0 0 24 24" xml:space="preserve" xmlns="http://www.w3.org/2000/svg"><path d="m1.6035 0.0078125c-0.87379 0-1.5957 0.72191-1.5957 1.5957v20.807c0 0.88339 0.71036 1.5938 1.5938 1.5938h20.801c0.88339 0 1.5957-0.71036 1.5957-1.5938l-2e-3 -20.807c0-0.87379-0.72191-1.5957-1.5957-1.5957z" fill="#fff"/><path d="m1.6035 0.0078125c-0.87379 0-1.5957 0.72191-1.5957 1.5957v20.807c0 0.88339 0.71036 1.5938 1.5938 1.5938h20.801c0.88339 0 1.5957-0.71036 1.5957-1.5938l-2e-3 -20.807c0-0.87379-0.72191-1.5957-1.5957-1.5957zm0 1.1348h20.797c0.26524 0 0.46094 0.19569 0.46094 0.46094v10.182l-1.3418 0.29688-5.082-2.002-6.0957 1.002-3.8281 6.3457-3.6465-2.4199-1.7246 1.9629v-15.367c0-0.26524 0.19569-0.46094 0.46094-0.46094zm9.0625 1.1387s-1.7285 1.9453-1.7285 3.0977c0 0.9565 0.7749 1.7285 1.7285 1.7285 0.95468 0 1.7285-0.77383 1.7285-1.7285 0-1.1523-1.7283-3.0974-1.7285-3.0977zm8.0059 0.49805s-1.7285 1.9453-1.7285 3.0977c0 0.9565 0.7749 1.7285 1.7285 1.7285 0.95468 0 1.7285-0.77383 1.7285-1.7285 0-1.1523-1.7283-3.0974-1.7285-3.0977zm-13.662 3.6895s-1.7285 1.9453-1.7285 3.0977c0 0.9565 0.7749 1.7285 1.7285 1.7285 0.95468 0 1.7285-0.77383 1.7285-1.7285 0-1.1523-1.7283-3.0974-1.7285-3.0977zm12.783 6.5078c0.16266 0 0.32395 0.06223 0.44726 0.18555l4.1797 4.1797c0.24705 0.24705 0.44922 0.73498 0.44922 1.084v3.8066c0 0.349-0.28576 0.63476-0.63477 0.63477h-8.8848c-0.349 0-0.63476-0.28576-0.63476-0.63477v-3.8086c0-0.349 0.20259-0.8354 0.44922-1.082l4.1797-4.1797c0.12332-0.12332 0.28656-0.18555 0.44922-0.18555z" fill="#4e6ec9"/></svg>
